# xmcd
#
# Track frame offsets: 
#        182
#        17462
#        34987
#        56842
#
# Disc length: 1010 seconds
#
# Revision: 4
# Processed by: cddbd v1.5.2PL0 Copyright (c) Steve Scherf et al.
# Submitted via: ExactAudioCopy v0.99pb4
#
DISCID=2c03f004
DTITLE=Let Loose - Take It Easy [CD Single 1)
DYEAR=1996
DGENRE=Pop, Rock - Soft Rock
TTITLE0=Take It Easy
TTITLE1=Make It With You (Acoustic Version)
TTITLE2=Butterfly
TTITLE3=Play Without Fear
EXTD=
EXTT0=
EXTT1=
EXTT2=
EXTT3=
PLAYORDER=
